<svg width="50" height="50" viewBox="0 0 50 50" fill="none" xmlns="http://www.w3.org/2000/svg">
<path d="M38.8078 0H11.1593C8.20239 0.00879316 5.36907 1.18811 3.2782 3.28036C1.18732 5.37261 0.00878738 8.20781 0 11.1667V38.8333C0.00878738 41.7922 1.18732 44.6274 3.2782 46.7197C5.36907 48.8119 8.20239 49.9912 11.1593 50H38.8078C41.7647 49.9912 44.5981 48.8119 46.6889 46.7197C48.7798 44.6274 49.9583 41.7922 49.9671 38.8333V11.1667C49.9583 8.20781 48.7798 5.37261 46.6889 3.28036C44.5981 1.18811 41.7647 0.00879316 38.8078 0ZM32.6327 39.0417C32.6433 39.6783 32.4581 40.3028 32.102 40.8305C31.746 41.3582 31.2364 41.7636 30.6423 41.9917C29.2849 42.575 28.0732 42.2708 27.0239 41.275C26.7139 40.9705 26.4723 40.6034 26.3151 40.1983C26.1579 39.7931 26.0886 39.359 26.112 38.925C26.112 35.9584 26.112 32.9875 26.112 30.0209C26.112 26.5584 23.5678 23.8708 20.2117 23.8292C17.4052 23.7917 14.8236 25.8042 14.3114 28.4375C13.7201 31.4375 15.1983 34.2708 17.9632 35.325C18.6541 35.5667 19.3764 35.7071 20.1076 35.7417C22.0188 35.8708 23.4387 37.2833 23.3763 39.075C23.3138 40.9875 21.9064 42.3 19.9244 42.2958C17.6737 42.2533 15.4764 41.603 13.5647 40.4137C11.653 39.2244 10.0979 37.5402 9.06403 35.5393C8.03011 33.5384 7.55573 31.2952 7.69104 29.0467C7.82635 26.7982 8.56632 24.6281 9.83272 22.7659C11.0991 20.9036 12.8449 19.4183 14.8854 18.4672C16.9259 17.516 19.1854 17.1343 21.4249 17.3623C23.6644 17.5903 25.8007 18.4197 27.6079 19.7626C29.4151 21.1056 30.8261 22.9123 31.6917 24.9917C32.3478 26.6008 32.6762 28.3247 32.6577 30.0625C32.6577 31.4 32.6577 32.7417 32.6577 34.0792C32.641 35.7292 32.6743 37.3875 32.6327 39.0417ZM42.064 39.0167C42.085 39.7872 41.8241 40.5388 41.3303 41.1304C40.8365 41.7219 40.1438 42.1127 39.3824 42.2292C38.6666 42.3563 37.9289 42.2379 37.2888 41.893C36.6486 41.5482 36.1436 40.9971 35.8556 40.3292C35.6693 39.7939 35.5819 39.2291 35.5974 38.6625C35.5724 35.6958 35.5974 32.7333 35.5974 29.7667C35.5974 26.6958 35.5974 23.6292 35.5974 20.5583C35.5913 19.8747 35.8027 19.2069 36.201 18.6515C36.5994 18.096 37.164 17.6819 37.8132 17.4689C38.4624 17.2559 39.1625 17.2552 39.8122 17.4668C40.4618 17.6783 41.0274 18.0913 41.4269 18.6458C41.8024 19.2074 42.0143 19.8624 42.039 20.5375C42.089 26.6833 42.0848 32.85 42.064 39.0167ZM38.8245 14.8083C38.1225 14.8116 37.4352 14.6065 36.8498 14.2188C36.2644 13.831 35.8071 13.2783 35.5358 12.6304C35.2645 11.9825 35.1914 11.2686 35.3257 10.5791C35.46 9.8896 35.7958 9.25549 36.2904 8.75702C36.785 8.25854 37.4164 7.91813 38.1045 7.77885C38.7925 7.63958 39.5064 7.70771 40.1558 7.97462C40.8052 8.24154 41.3608 8.69523 41.7524 9.27828C42.1439 9.86134 42.3538 10.5475 42.3555 11.25C42.3616 11.7169 42.2746 12.1803 42.0996 12.6131C41.9246 13.046 41.6652 13.4395 41.3364 13.7709C41.0076 14.1022 40.6161 14.3646 40.1848 14.5427C39.7535 14.7209 39.2911 14.8112 38.8245 14.8083Z" fill="#3F8CFF"/>
</svg>
