<svg width="349" height="267" viewBox="0 0 349 267" fill="none" xmlns="http://www.w3.org/2000/svg">
<path d="M349 235.198H0V235.373H349V235.198Z" fill="#E0E0E0"/>
<path d="M264.772 241.637H240.761V241.811H264.772V241.637Z" fill="#E0E0E0"/>
<path d="M293.021 241.141H279.507V241.315H293.021V241.141Z" fill="#E0E0E0"/>
<path d="M172.643 241.553H154.719V241.727H172.643V241.553Z" fill="#E0E0E0"/>
<path d="M185.591 244.032H173.348V244.207H185.591V244.032Z" fill="#E0E0E0"/>
<path d="M100.98 239.786H63.9927V239.961H100.98V239.786Z" fill="#E0E0E0"/>
<path d="M165.426 204.054H30.649C29.5932 204.052 28.5812 203.631 27.8353 202.883C27.0894 202.136 26.6704 201.123 26.6704 200.066V10.5247C26.6796 9.47445 27.1026 8.47025 27.8475 7.73021C28.5925 6.99017 29.5992 6.57406 30.649 6.57227H165.426C166.483 6.57227 167.497 6.99236 168.244 7.74013C168.992 8.4879 169.411 9.50209 169.411 10.5596V200.066C169.411 201.124 168.992 202.138 168.244 202.886C167.497 203.634 166.483 204.054 165.426 204.054ZM30.649 6.71193C29.6395 6.71378 28.6719 7.11629 27.9587 7.83112C27.2455 8.54595 26.8449 9.51469 26.8449 10.5247V200.066C26.8449 201.076 27.2455 202.045 27.9587 202.76C28.6719 203.475 29.6395 203.877 30.649 203.879H165.426C166.436 203.877 167.404 203.475 168.119 202.76C168.833 202.046 169.235 201.077 169.237 200.066V10.5247C169.235 9.51405 168.833 8.54533 168.119 7.8307C167.404 7.11607 166.436 6.71377 165.426 6.71193H30.649Z" fill="#E0E0E0"/>
<path d="M316.411 204.054H181.627C180.57 204.052 179.558 203.631 178.811 202.884C178.063 202.136 177.643 201.123 177.641 200.066V10.5247C177.652 9.47381 178.077 8.46962 178.823 7.72978C179.569 6.98993 180.576 6.57405 181.627 6.57227H316.411C317.459 6.5759 318.464 6.99282 319.207 7.73266C319.951 8.47251 320.373 9.47566 320.382 10.5247V200.066C320.382 201.121 319.964 202.134 319.22 202.881C318.475 203.628 317.465 204.05 316.411 204.054ZM181.627 6.71193C180.616 6.71377 179.648 7.11607 178.934 7.8307C178.22 8.54533 177.817 9.51405 177.816 10.5247V200.066C177.817 201.077 178.22 202.046 178.934 202.76C179.648 203.475 180.616 203.877 181.627 203.879H316.411C317.421 203.877 318.389 203.475 319.103 202.76C319.818 202.046 320.22 201.077 320.222 200.066V10.5247C320.22 9.51405 319.818 8.54533 319.103 7.8307C318.389 7.11607 317.421 6.71377 316.411 6.71193H181.627Z" fill="#E0E0E0"/>
<path d="M302.953 23.5205H197.764V113.993H302.953V23.5205Z" fill="#E0E0E0"/>
<path d="M305.291 23.5205H200.103V113.993H305.291V23.5205Z" fill="#F0F0F0"/>
<path d="M301.096 109.747V27.7656L204.298 27.7656V109.747H301.096Z" fill="#FAFAFA"/>
<path d="M270.161 109.747V27.7656H263.837V109.747H270.161Z" fill="#E0E0E0"/>
<path d="M236.894 109.747V27.7656H230.57V109.747H236.894Z" fill="#E0E0E0"/>
<path d="M272.388 112.436V24.6025H266.064V112.436H272.388Z" fill="#F0F0F0"/>
<path d="M239.114 112.443V24.6094H232.79V112.443H239.114Z" fill="#F0F0F0"/>
<path d="M301.096 109.74V27.7588H299.33V109.74H301.096Z" fill="#E0E0E0"/>
<path d="M123.783 94.9712C123.783 94.9712 110.982 72.9117 128.746 55.3213C128.746 55.3213 133.381 58.345 133.311 62.4091C133.241 66.4733 128.341 67.4998 129.395 70.8936C130.449 74.2873 135.063 77.6043 132.033 80.4115C129.004 83.2187 132.522 85.7047 132.32 89.1404C132.117 92.576 123.783 94.9712 123.783 94.9712Z" fill="#E0E0E0"/>
<path d="M125.793 98.5811C125.793 98.5811 130.987 73.5957 108.595 62.5205C108.595 62.5205 105.147 66.85 106.501 70.6837C107.855 74.5174 112.818 73.9448 112.887 77.4992C112.957 81.0536 109.628 85.6624 113.383 87.3663C117.138 89.0702 114.59 92.5477 115.868 95.746C117.145 98.9442 125.793 98.5811 125.793 98.5811Z" fill="#E6E6E6"/>
<path d="M114.395 92.2334C114.395 92.2334 114.618 113.804 123.239 113.804C131.859 113.804 132.075 92.2334 132.075 92.2334H114.395Z" fill="#F0F0F0"/>
<path d="M62.6035 105.69C62.6035 105.69 63.0851 113.805 81.4914 113.805C99.8977 113.805 100.386 105.69 100.386 105.69H62.6035Z" fill="#E6E6E6"/>
<path d="M256.654 154.613H246.938C245.728 154.613 244.747 155.595 244.747 156.806V172.881C244.747 174.092 245.728 175.074 246.938 175.074H256.654C257.865 175.074 258.846 174.092 258.846 172.881V156.806C258.846 155.595 257.865 154.613 256.654 154.613Z" fill="#F0F0F0"/>
<path d="M282.425 161.304H275.884C275.071 161.304 274.412 161.963 274.412 162.777V173.601C274.412 174.415 275.071 175.074 275.884 175.074H282.425C283.238 175.074 283.897 174.415 283.897 173.601V162.777C283.897 161.963 283.238 161.304 282.425 161.304Z" fill="#E6E6E6"/>
<path d="M283.402 159.97H274.907C274.633 159.97 274.412 160.192 274.412 160.466V161.024C274.412 161.298 274.633 161.52 274.907 161.52H283.402C283.676 161.52 283.897 161.298 283.897 161.024V160.466C283.897 160.192 283.676 159.97 283.402 159.97Z" fill="#F0F0F0"/>
<path d="M222.257 163.691C222.257 163.691 222.606 175.074 235.931 175.074C249.256 175.074 249.612 163.691 249.612 163.691H222.257Z" fill="#E6E6E6"/>
<path d="M189.116 148.657H209.281V144.677H189.116V148.657Z" fill="#E0E0E0"/>
<path d="M309.535 144.684H209.281V148.664H309.535V144.684Z" fill="#F0F0F0"/>
<path d="M189.116 179.055H209.281V175.074H189.116V179.055Z" fill="#E0E0E0"/>
<path d="M309.535 175.074H209.281V179.055H309.535V175.074Z" fill="#F0F0F0"/>
<path d="M196.382 148.657H192.662V235.192H196.382V148.657Z" fill="#E0E0E0"/>
<path d="M213.002 148.657H209.281V235.192H213.002V148.657Z" fill="#F0F0F0"/>
<path d="M296.636 148.657H292.916V235.192H296.636V148.657Z" fill="#E0E0E0"/>
<path d="M309.535 148.657H305.815V235.192H309.535V148.657Z" fill="#F0F0F0"/>
<path d="M62.6035 118.867H43.5342V229.961H62.6035V118.867Z" fill="#E6E6E6"/>
<path d="M141.233 229.954H47.1987V235.198H141.233V229.954Z" fill="#E6E6E6"/>
<path d="M62.6034 229.954H144.891V118.86L62.6034 118.86L62.6034 229.954Z" fill="#F0F0F0"/>
<path d="M70.1004 187.979H137.395V160.842H70.1004V187.979Z" fill="#E6E6E6"/>
<path d="M70.1004 220.059H137.395V192.922H70.1004V220.059Z" fill="#E6E6E6"/>
<path d="M111.303 163.818H96.1916C95.6998 163.816 95.2286 163.62 94.8808 163.272C94.533 162.924 94.3368 162.452 94.335 161.96C94.335 161.467 94.5303 160.994 94.8783 160.644C95.2263 160.295 95.6986 160.098 96.1916 160.096H111.303C111.796 160.098 112.269 160.295 112.617 160.644C112.965 160.994 113.16 161.467 113.16 161.96C113.158 162.452 112.962 162.924 112.614 163.272C112.266 163.62 111.795 163.816 111.303 163.818Z" fill="#F0F0F0"/>
<path d="M70.1004 155.892H137.395V128.755H70.1004V155.892Z" fill="#E6E6E6"/>
<path d="M111.303 131.737H96.1916C95.6986 131.735 95.2263 131.538 94.8783 131.188C94.5303 130.839 94.335 130.365 94.335 129.872C94.3368 129.38 94.533 128.909 94.8808 128.561C95.2286 128.213 95.6998 128.016 96.1916 128.015H111.303C111.795 128.016 112.266 128.213 112.614 128.561C112.962 128.909 113.158 129.38 113.16 129.872C113.16 130.365 112.965 130.839 112.617 131.188C112.269 131.538 111.796 131.735 111.303 131.737Z" fill="#F0F0F0"/>
<path d="M111.303 195.898H96.1916C95.6998 195.896 95.2286 195.7 94.8808 195.352C94.533 195.004 94.3368 194.532 94.335 194.04C94.335 193.547 94.5303 193.074 94.8783 192.724C95.2263 192.375 95.6986 192.178 96.1916 192.176H111.303C111.796 192.178 112.269 192.375 112.617 192.724C112.965 193.074 113.16 193.547 113.16 194.04C113.158 194.532 112.962 195.004 112.614 195.352C112.266 195.7 111.795 195.896 111.303 195.898Z" fill="#F0F0F0"/>
<path d="M147.431 113.805H62.6035V118.867H147.431V113.805Z" fill="#E6E6E6"/>
<path d="M40.8678 118.86H62.6035V113.798H40.8678V118.86Z" fill="#E0E0E0"/>
<path d="M83.8579 27.7656H53.0063V61.6615H83.8579V27.7656Z" fill="#E6E6E6"/>
<path d="M87.2013 27.7656H55.3306V61.6615H87.2013V27.7656Z" fill="#F0F0F0"/>
<path d="M84.5278 58.9874V30.4336H57.9969V58.9874H84.5278Z" fill="#FAFAFA"/>
<path d="M78.0991 52.0669V37.3535H64.4323V52.0669H78.0991Z" fill="#F0F0F0"/>
<path d="M116.384 17.7588H92.9873V42.9048H116.384V17.7588Z" fill="#E6E6E6"/>
<path d="M118.869 17.7588H95.228V42.9048H118.869V17.7588Z" fill="#F0F0F0"/>
<path d="M116.887 40.9219V19.7422H97.2106V40.9219H116.887Z" fill="#FAFAFA"/>
<path d="M107.045 24.9727L101.664 34.3021H112.427L107.045 24.9727Z" fill="#F0F0F0"/>
<path d="M174.5 266.733C249.244 266.733 309.835 263.194 309.835 258.829C309.835 254.463 249.244 250.924 174.5 250.924C99.7567 250.924 39.165 254.463 39.165 258.829C39.165 263.194 99.7567 266.733 174.5 266.733Z" fill="#F5F5F5"/>
<path d="M293.02 69.9932H224.547C220.935 69.9932 218.006 72.9226 218.006 76.5363V95.1671C218.006 98.7808 220.935 101.71 224.547 101.71H293.02C296.633 101.71 299.561 98.7808 299.561 95.1671V76.5363C299.561 72.9226 296.633 69.9932 293.02 69.9932Z" fill="#407BFF"/>
<path d="M279.437 75.3418H225.949C225.317 75.3418 224.805 75.8545 224.805 76.487V77.744C224.805 78.3765 225.317 78.8892 225.949 78.8892H279.437C280.069 78.8892 280.582 78.3765 280.582 77.744V76.487C280.582 75.8545 280.069 75.3418 279.437 75.3418Z" fill="#407BFF"/>
<path d="M262.497 83.8896H225.949C225.317 83.8896 224.805 84.4024 224.805 85.0349V86.2918C224.805 86.9243 225.317 87.437 225.949 87.437H262.497C263.129 87.437 263.641 86.9243 263.641 86.2918V85.0349C263.641 84.4024 263.129 83.8896 262.497 83.8896Z" fill="#407BFF"/>
<path d="M252.697 92.4365H225.949C225.317 92.4365 224.805 92.9493 224.805 93.5818V94.8387C224.805 95.4712 225.317 95.9839 225.949 95.9839H252.697C253.329 95.9839 253.842 95.4712 253.842 94.8387V93.5818C253.842 92.9493 253.329 92.4365 252.697 92.4365Z" fill="#407BFF"/>
<path d="M285.845 92.4365H259.097C258.465 92.4365 257.953 92.9493 257.953 93.5818V94.8387C257.953 95.4712 258.465 95.9839 259.097 95.9839H285.845C286.477 95.9839 286.989 95.4712 286.989 94.8387V93.5818C286.989 92.9493 286.477 92.4365 285.845 92.4365Z" fill="#407BFF"/>
<g opacity="0.5">
<path opacity="0.5" d="M279.437 75.3418H225.949C225.317 75.3418 224.805 75.8545 224.805 76.487V77.744C224.805 78.3765 225.317 78.8892 225.949 78.8892H279.437C280.069 78.8892 280.582 78.3765 280.582 77.744V76.487C280.582 75.8545 280.069 75.3418 279.437 75.3418Z" fill="white"/>
<path opacity="0.5" d="M262.497 83.8887H225.949C225.317 83.8887 224.805 84.4014 224.805 85.0339V86.2908C224.805 86.9233 225.317 87.4361 225.949 87.4361H262.497C263.129 87.4361 263.641 86.9233 263.641 86.2908V85.0339C263.641 84.4014 263.129 83.8887 262.497 83.8887Z" fill="white"/>
<path opacity="0.5" d="M252.697 92.4365H225.949C225.317 92.4365 224.805 92.9493 224.805 93.5818V94.8387C224.805 95.4712 225.317 95.9839 225.949 95.9839H252.697C253.329 95.9839 253.842 95.4712 253.842 94.8387V93.5818C253.842 92.9493 253.329 92.4365 252.697 92.4365Z" fill="white"/>
<path opacity="0.5" d="M285.845 92.4365H259.097C258.465 92.4365 257.953 92.9493 257.953 93.5818V94.8387C257.953 95.4712 258.465 95.9839 259.097 95.9839H285.845C286.477 95.9839 286.989 95.4712 286.989 94.8387V93.5818C286.989 92.9493 286.477 92.4365 285.845 92.4365Z" fill="white"/>
</g>
<path d="M238.171 62.5977H160.449C155.152 62.5977 150.858 66.8934 150.858 72.1924V99.5102C150.858 104.809 155.152 109.105 160.449 109.105H238.171C243.468 109.105 247.762 104.809 247.762 99.5102V72.1924C247.762 66.8934 243.468 62.5977 238.171 62.5977Z" fill="#407BFF"/>
<path d="M240.922 70.4395H162.508C161.579 70.4395 160.826 71.1929 160.826 72.1224V73.9589C160.826 74.8884 161.579 75.6418 162.508 75.6418H240.922C241.851 75.6418 242.604 74.8884 242.604 73.9589V72.1224C242.604 71.1929 241.851 70.4395 240.922 70.4395Z" fill="#407BFF"/>
<path d="M216.08 82.9746H162.508C161.579 82.9746 160.826 83.7281 160.826 84.6575V86.4941C160.826 87.4235 161.579 88.177 162.508 88.177H216.08C217.009 88.177 217.762 87.4235 217.762 86.4941V84.6575C217.762 83.7281 217.009 82.9746 216.08 82.9746Z" fill="#407BFF"/>
<path d="M201.715 95.5088H162.508C161.579 95.5088 160.826 96.2623 160.826 97.1917V99.0283C160.826 99.9577 161.579 100.711 162.508 100.711H201.715C202.644 100.711 203.397 99.9577 203.397 99.0283V97.1917C203.397 96.2623 202.644 95.5088 201.715 95.5088Z" fill="#407BFF"/>
<path d="M243.776 95.5088H211.11C210.181 95.5088 209.428 96.2623 209.428 97.1917V99.0283C209.428 99.9577 210.181 100.711 211.11 100.711H243.776C244.705 100.711 245.458 99.9577 245.458 99.0283V97.1917C245.458 96.2623 244.705 95.5088 243.776 95.5088Z" fill="#407BFF"/>
<g opacity="0.5">
<path opacity="0.5" d="M240.922 70.4395H162.508C161.579 70.4395 160.826 71.1929 160.826 72.1224V73.9589C160.826 74.8884 161.579 75.6418 162.508 75.6418H240.922C241.851 75.6418 242.604 74.8884 242.604 73.9589V72.1224C242.604 71.1929 241.851 70.4395 240.922 70.4395Z" fill="white"/>
<path opacity="0.5" d="M216.08 82.9736H162.508C161.579 82.9736 160.826 83.7271 160.826 84.6566V86.4931C160.826 87.4226 161.579 88.176 162.508 88.176H216.08C217.009 88.176 217.762 87.4226 217.762 86.4931V84.6566C217.762 83.7271 217.009 82.9736 216.08 82.9736Z" fill="white"/>
<path opacity="0.5" d="M201.715 95.5088H162.508C161.579 95.5088 160.826 96.2623 160.826 97.1917V99.0283C160.826 99.9577 161.579 100.711 162.508 100.711H201.715C202.644 100.711 203.397 99.9577 203.397 99.0283V97.1917C203.397 96.2623 202.644 95.5088 201.715 95.5088Z" fill="white"/>
<path opacity="0.5" d="M243.776 95.5088H211.11C210.181 95.5088 209.428 96.2623 209.428 97.1917V99.0283C209.428 99.9577 210.181 100.711 211.11 100.711H243.776C244.705 100.711 245.458 99.9577 245.458 99.0283V97.1917C245.458 96.2623 244.705 95.5088 243.776 95.5088Z" fill="white"/>
</g>
<path d="M189.849 117.534H152.415C149.94 117.534 147.934 119.541 147.934 122.017V178.119C147.934 180.595 149.94 182.602 152.415 182.602H189.849C192.324 182.602 194.33 180.595 194.33 178.119V122.017C194.33 119.541 192.324 117.534 189.849 117.534Z" fill="#407BFF"/>
<path opacity="0.4" d="M189.849 117.534H152.415C149.94 117.534 147.934 119.541 147.934 122.017V178.119C147.934 180.595 149.94 182.602 152.415 182.602H189.849C192.324 182.602 194.33 180.595 194.33 178.119V122.017C194.33 119.541 192.324 117.534 189.849 117.534Z" fill="black"/>
<path d="M188.132 124.321H154.125C153.671 124.321 153.302 124.69 153.302 125.145V126.381C153.302 126.836 153.671 127.205 154.125 127.205H188.132C188.587 127.205 188.956 126.836 188.956 126.381V125.145C188.956 124.69 188.587 124.321 188.132 124.321Z" fill="#FAFAFA"/>
<path d="M177.306 131.263H154.125C153.671 131.263 153.302 131.632 153.302 132.087V133.323C153.302 133.778 153.671 134.147 154.125 134.147H177.306C177.761 134.147 178.13 133.778 178.13 133.323V132.087C178.13 131.632 177.761 131.263 177.306 131.263Z" fill="#FAFAFA"/>
<path d="M188.132 138.211H154.125C153.671 138.211 153.302 138.58 153.302 139.035V140.271C153.302 140.726 153.671 141.095 154.125 141.095H188.132C188.587 141.095 188.956 140.726 188.956 140.271V139.035C188.956 138.58 188.587 138.211 188.132 138.211Z" fill="#FAFAFA"/>
<path d="M166.766 145.151H154.125C153.671 145.151 153.302 145.52 153.302 145.975V147.211C153.302 147.666 153.671 148.035 154.125 148.035H166.766C167.221 148.035 167.59 147.666 167.59 147.211V145.975C167.59 145.52 167.221 145.151 166.766 145.151Z" fill="#FAFAFA"/>
<path d="M184.453 145.151H171.812C171.358 145.151 170.989 145.52 170.989 145.975V147.211C170.989 147.666 171.358 148.035 171.812 148.035H184.453C184.908 148.035 185.277 147.666 185.277 147.211V145.975C185.277 145.52 184.908 145.151 184.453 145.151Z" fill="#FAFAFA"/>
<path d="M188.132 152.1H154.125C153.671 152.1 153.302 152.469 153.302 152.924V154.16C153.302 154.615 153.671 154.984 154.125 154.984H188.132C188.587 154.984 188.956 154.615 188.956 154.16V152.924C188.956 152.469 188.587 152.1 188.132 152.1Z" fill="#FAFAFA"/>
<path d="M188.132 159.041H154.125C153.671 159.041 153.302 159.41 153.302 159.865V161.101C153.302 161.556 153.671 161.925 154.125 161.925H188.132C188.587 161.925 188.956 161.556 188.956 161.101V159.865C188.956 159.41 188.587 159.041 188.132 159.041Z" fill="#FAFAFA"/>
<path d="M182.101 165.989H154.125C153.671 165.989 153.302 166.358 153.302 166.813V168.049C153.302 168.504 153.671 168.873 154.125 168.873H182.101C182.556 168.873 182.925 168.504 182.925 168.049V166.813C182.925 166.358 182.556 165.989 182.101 165.989Z" fill="#FAFAFA"/>
<path d="M167.178 172.931H154.125C153.671 172.931 153.302 173.3 153.302 173.755V174.991C153.302 175.446 153.671 175.815 154.125 175.815H167.178C167.633 175.815 168.002 175.446 168.002 174.991V173.755C168.002 173.3 167.633 172.931 167.178 172.931Z" fill="#FAFAFA"/>
<path d="M199.977 117.136H148.053L171.01 135.41L206.21 148.678V123.358C206.206 121.706 205.548 120.124 204.38 118.957C203.211 117.791 201.628 117.136 199.977 117.136Z" fill="#407BFF"/>
<path opacity="0.4" d="M199.977 117.136H148.053L171.01 135.41L206.21 148.678V123.358C206.206 121.706 205.548 120.124 204.38 118.957C203.211 117.791 201.628 117.136 199.977 117.136Z" fill="black"/>
<path d="M197.708 126.549H159.716C159.146 126.549 158.683 127.012 158.683 127.582V129.51C158.683 130.08 159.146 130.543 159.716 130.543H197.708C198.279 130.543 198.741 130.08 198.741 129.51V127.582C198.741 127.012 198.279 126.549 197.708 126.549Z" fill="#FAFAFA"/>
<path d="M289.774 166.604V130.069C289.774 127.269 287.506 124.999 284.707 124.999H221.294C218.495 124.999 216.226 127.269 216.226 130.069V166.604C216.226 169.404 218.495 171.674 221.294 171.674H284.707C287.506 171.674 289.774 169.404 289.774 166.604Z" fill="#407BFF"/>
<path d="M301.354 155.026V118.491C301.354 115.691 299.086 113.421 296.287 113.421H232.874C230.075 113.421 227.806 115.691 227.806 118.491V155.026C227.806 157.826 230.075 160.096 232.874 160.096H296.287C299.086 160.096 301.354 157.826 301.354 155.026Z" fill="#407BFF"/>
<path opacity="0.5" d="M301.354 155.026V118.491C301.354 115.691 299.086 113.421 296.287 113.421H232.874C230.075 113.421 227.806 115.691 227.806 118.491V155.026C227.806 157.826 230.075 160.096 232.874 160.096H296.287C299.086 160.096 301.354 157.826 301.354 155.026Z" fill="white"/>
<path d="M294.919 142.505V120.012C294.919 118.767 293.91 117.757 292.664 117.757H271.941C270.696 117.757 269.686 118.767 269.686 120.012V142.505C269.686 143.751 270.696 144.76 271.941 144.76H292.664C293.91 144.76 294.919 143.751 294.919 142.505Z" fill="#407BFF"/>
<path opacity="0.7" d="M294.919 142.505V120.012C294.919 118.767 293.91 117.757 292.664 117.757H271.941C270.696 117.757 269.686 118.767 269.686 120.012V142.505C269.686 143.751 270.696 144.76 271.941 144.76H292.664C293.91 144.76 294.919 143.751 294.919 142.505Z" fill="white"/>
<path d="M265.735 153.385V136.151C265.735 135.194 264.96 134.419 264.004 134.419H248.125C247.169 134.419 246.394 135.194 246.394 136.151V153.385C246.394 154.341 247.169 155.117 248.125 155.117H264.004C264.96 155.117 265.735 154.341 265.735 153.385Z" fill="#407BFF"/>
<path opacity="0.3" d="M265.735 153.385V136.151C265.735 135.194 264.96 134.419 264.004 134.419H248.125C247.169 134.419 246.394 135.194 246.394 136.151V153.385C246.394 154.341 247.169 155.117 248.125 155.117H264.004C264.96 155.117 265.735 154.341 265.735 153.385Z" fill="white"/>
<path d="M256.061 44.1133V34.8049C256.061 31.9587 253.755 29.6514 250.91 29.6514L80.507 29.6514C77.6621 29.6514 75.3558 31.9587 75.3558 34.8049V44.1133C75.3558 46.9595 77.6621 49.2668 80.507 49.2668L250.91 49.2668C253.755 49.2668 256.061 46.9595 256.061 44.1133Z" fill="#407BFF"/>
<path opacity="0.5" d="M256.061 44.1133V34.8049C256.061 31.9587 253.755 29.6514 250.91 29.6514L80.507 29.6514C77.6621 29.6514 75.3558 31.9587 75.3558 34.8049V44.1133C75.3558 46.9595 77.6621 49.2668 80.507 49.2668L250.91 49.2668C253.755 49.2668 256.061 46.9595 256.061 44.1133Z" fill="white"/>
<path d="M223.82 52.5495V45.7969H174.786V52.5495H223.82Z" fill="#407BFF"/>
<path opacity="0.5" d="M223.82 52.5495V45.7969H174.786V52.5495H223.82Z" fill="white"/>
<path d="M273.644 15.1338V5.82539C273.644 2.97918 271.337 0.671875 268.492 0.671875L98.0896 0.671875C95.2447 0.671875 92.9384 2.97918 92.9384 5.82539V15.1338C92.9384 17.98 95.2447 20.2873 98.0896 20.2873L268.492 20.2873C271.337 20.2873 273.644 17.98 273.644 15.1338Z" fill="#407BFF"/>
<path d="M90.9916 103.819C90.3774 105.215 89.7003 106.724 89.107 108.197C88.5137 109.671 87.8995 111.186 87.362 112.694C86.2593 115.635 85.375 118.653 84.7166 121.723L84.5142 122.841L84.4444 123.26C84.4444 123.378 84.4444 123.532 84.4025 123.672C84.376 124.352 84.39 125.032 84.4444 125.711C84.577 127.184 84.8143 128.762 85.1424 130.341C85.7287 133.504 86.4756 136.765 87.2364 139.977L83.6556 141.374C81.9865 138.33 80.5649 135.156 79.4048 131.884C78.7936 130.181 78.2992 128.438 77.9251 126.667C77.7154 125.688 77.5847 124.693 77.5342 123.693C77.5342 123.413 77.5342 123.148 77.5342 122.848C77.5342 122.547 77.5342 122.212 77.583 122.017L77.7226 120.62C77.9312 118.821 78.2506 117.037 78.6789 115.278C79.0698 113.532 79.5723 111.835 80.0749 110.159C80.5775 108.483 81.2057 106.835 81.8688 105.215C82.1968 104.405 82.5668 103.602 82.8878 102.799C83.2089 101.996 83.5858 101.228 84.0326 100.369L90.9916 103.819Z" fill="#E4897B"/>
<path d="M87.0478 139.034L89.77 141.695L83.83 144.488C83.83 144.488 82.3921 141.967 83.3902 139.691L87.0478 139.034Z" fill="#E4897B"/>
<path d="M91.9686 145.655L86.95 147.708L83.8369 144.461L89.7699 141.695L91.9686 145.655Z" fill="#E4897B"/>
<path opacity="0.4" d="M193.632 142.791C183.756 141.682 174.431 137.668 166.835 131.257C159.238 124.846 153.713 116.326 150.956 106.774C148.199 97.2212 148.335 87.0657 151.347 77.5907C154.359 68.1157 160.111 59.7468 167.876 53.5418C175.641 47.3369 185.071 43.5745 194.973 42.7304C204.875 41.8863 214.805 43.9983 223.508 48.7994C232.211 53.6005 239.295 60.8752 243.866 69.7038C248.436 78.5324 250.288 88.5186 249.186 98.3998C248.454 104.965 246.437 111.321 243.248 117.106C240.06 122.89 235.763 127.99 230.604 132.112C225.445 136.235 219.524 139.3 213.18 141.132C206.837 142.965 200.194 143.528 193.632 142.791Z" fill="#FAFAFA"/>
<path opacity="0.4" d="M230.194 53.2121L153.763 114.307C153.442 113.609 153.127 112.91 152.834 112.212C150.918 107.652 149.693 102.832 149.198 97.9108L215.215 45.1396C220.635 46.9484 225.702 49.6793 230.194 53.2121Z" fill="#FAFAFA"/>
<path opacity="0.4" d="M247.832 79.9782L175.973 137.414C169.146 133.854 163.23 128.769 158.684 122.554L237.146 59.832C242.203 65.6398 245.86 72.5325 247.832 79.9782Z" fill="#FAFAFA"/>
<path d="M142.664 73.6099L142.001 73.3865C143.149 69.9962 144.593 66.7132 146.315 63.5753L146.922 63.9104C145.223 67.0133 143.798 70.2588 142.664 73.6099ZM151.138 57.3114L150.572 56.8994C156.309 49.1397 163.816 42.8645 172.469 38.5968L172.783 39.2253C164.228 43.4489 156.807 49.6571 151.138 57.3324V57.3114ZM227.632 40.182C225.351 38.958 222.991 37.8872 220.568 36.9767L220.819 36.3203C223.266 37.2522 225.649 38.3439 227.953 39.5884L227.632 40.182Z" fill="#407BFF"/>
<path opacity="0.3" d="M142.664 73.6099L142.001 73.3865C143.149 69.9962 144.593 66.7132 146.315 63.5753L146.922 63.9104C145.223 67.0133 143.798 70.2588 142.664 73.6099ZM151.138 57.3114L150.572 56.8994C156.309 49.1397 163.816 42.8645 172.469 38.5968L172.783 39.2253C164.228 43.4489 156.807 49.6571 151.138 57.3324V57.3114ZM227.632 40.182C225.351 38.958 222.991 37.8872 220.568 36.9767L220.819 36.3203C223.266 37.2522 225.649 38.3439 227.953 39.5884L227.632 40.182Z" fill="black"/>
<path d="M251.189 67.1436C244.726 53.7328 233.352 43.3246 219.426 38.0766C205.499 32.8286 190.088 33.1434 176.387 38.9556C162.687 44.7679 151.747 55.6319 145.836 69.2954C139.925 82.9589 139.497 98.374 144.64 112.345C139.977 113.979 135.37 115.732 130.791 117.54C124.188 120.161 117.646 122.899 111.164 125.753C104.686 128.623 98.2366 131.549 91.8499 134.607C88.6461 136.108 85.4842 137.694 82.2943 139.23C80.6349 139.943 79.1314 140.975 77.869 142.268C77.1858 142.983 76.5842 143.772 76.0751 144.621C75.454 145.624 74.9836 146.714 74.6791 147.854C74.1539 149.909 74.381 152.084 75.3194 153.986C76.2578 155.888 77.8455 157.391 79.7954 158.224C80.8782 158.678 82.0207 158.975 83.1877 159.104C84.1734 159.215 85.1685 159.215 86.1542 159.104C87.9455 158.886 89.6766 158.319 91.2496 157.435C94.4116 155.836 97.5945 154.292 100.735 152.651C107.017 149.446 113.299 146.101 119.505 142.707C125.71 139.314 131.922 135.759 137.981 132.114C142.169 129.579 146.399 126.989 150.545 124.279C158.506 136.853 170.998 145.881 185.432 149.492C199.865 153.103 215.134 151.02 228.075 143.675C241.015 136.329 250.635 124.285 254.941 110.037C259.247 95.7898 257.908 80.431 251.203 67.1436H251.189ZM219.458 133.853C211.347 137.859 202.23 139.368 193.261 138.19C184.292 137.013 175.873 133.201 169.069 127.236C162.265 121.272 157.382 113.424 155.037 104.683C152.692 95.9424 152.99 86.7023 155.893 78.1312C158.797 69.56 164.176 62.0427 171.35 56.5297C178.524 51.0167 187.17 47.7556 196.197 47.1588C205.223 46.562 214.224 48.6563 222.06 53.1768C229.897 57.6974 236.218 64.4412 240.224 72.5555C242.884 77.9443 244.457 83.8046 244.853 89.8017C245.25 95.7988 244.461 101.815 242.533 107.507C240.604 113.2 237.574 118.456 233.615 122.976C229.656 127.497 224.845 131.193 219.458 133.853Z" fill="#407BFF"/>
<path opacity="0.3" d="M251.189 67.1436C244.726 53.7328 233.352 43.3246 219.426 38.0766C205.499 32.8286 190.088 33.1434 176.387 38.9556C162.687 44.7679 151.747 55.6319 145.836 69.2954C139.925 82.9589 139.497 98.374 144.64 112.345C139.977 113.979 135.37 115.732 130.791 117.54C124.188 120.161 117.646 122.899 111.164 125.753C104.686 128.623 98.2366 131.549 91.8499 134.607C88.6461 136.108 85.4842 137.694 82.2943 139.23C80.6349 139.943 79.1314 140.975 77.869 142.268C77.1858 142.983 76.5842 143.772 76.0751 144.621C75.454 145.624 74.9836 146.714 74.6791 147.854C74.1539 149.909 74.381 152.084 75.3194 153.986C76.2578 155.888 77.8455 157.391 79.7954 158.224C80.8782 158.678 82.0207 158.975 83.1877 159.104C84.1734 159.215 85.1685 159.215 86.1542 159.104C87.9455 158.886 89.6766 158.319 91.2496 157.435C94.4116 155.836 97.5945 154.292 100.735 152.651C107.017 149.446 113.299 146.101 119.505 142.707C125.71 139.314 131.922 135.759 137.981 132.114C142.169 129.579 146.399 126.989 150.545 124.279C158.506 136.853 170.998 145.881 185.432 149.492C199.865 153.103 215.134 151.02 228.075 143.675C241.015 136.329 250.635 124.285 254.941 110.037C259.247 95.7898 257.908 80.431 251.203 67.1436H251.189ZM219.458 133.853C211.347 137.859 202.23 139.368 193.261 138.19C184.292 137.013 175.873 133.201 169.069 127.236C162.265 121.272 157.382 113.424 155.037 104.683C152.692 95.9424 152.99 86.7023 155.893 78.1312C158.797 69.56 164.176 62.0427 171.35 56.5297C178.524 51.0167 187.17 47.7556 196.197 47.1588C205.223 46.562 214.224 48.6563 222.06 53.1768C229.897 57.6974 236.218 64.4412 240.224 72.5555C242.884 77.9443 244.457 83.8046 244.853 89.8017C245.25 95.7988 244.461 101.815 242.533 107.507C240.604 113.2 237.574 118.456 233.615 122.976C229.656 127.497 224.845 131.193 219.458 133.853Z" fill="black"/>
<path d="M110.284 78.882C110.284 79.294 110.501 79.6292 110.773 79.6292C111.045 79.6292 111.261 79.294 111.261 78.882C111.261 78.47 111.045 78.1348 110.773 78.1348C110.501 78.1348 110.284 78.4979 110.284 78.882Z" fill="#263238"/>
<path d="M110.479 79.6289C110.974 80.8936 111.638 82.0848 112.455 83.1693C112.172 83.3714 111.849 83.5092 111.508 83.5732C111.167 83.6371 110.816 83.6256 110.479 83.5394V79.6289Z" fill="#DE5753"/>
<path d="M108.839 76.5849C108.801 76.5849 108.762 76.5761 108.727 76.5592C108.692 76.5423 108.661 76.5176 108.637 76.4871C108.601 76.4338 108.586 76.3686 108.597 76.3049C108.607 76.2412 108.641 76.1839 108.693 76.145C109 75.9117 109.359 75.7563 109.74 75.6918C110.12 75.6274 110.511 75.6559 110.878 75.7749C110.911 75.7838 110.941 75.7996 110.968 75.8212C110.994 75.8428 111.016 75.8697 111.031 75.9002C111.047 75.9307 111.056 75.9641 111.057 75.9982C111.059 76.0324 111.054 76.0665 111.041 76.0984C111.029 76.1303 111.01 76.1593 110.986 76.1835C110.962 76.2076 110.933 76.2265 110.901 76.2388C110.869 76.251 110.835 76.2565 110.801 76.2548C110.767 76.253 110.734 76.2442 110.703 76.2288C110.412 76.1393 110.103 76.1212 109.803 76.1758C109.503 76.2305 109.22 76.3564 108.979 76.543C108.938 76.5705 108.889 76.585 108.839 76.5849Z" fill="#263238"/>
<path d="M96.1846 81.9893C96.8826 85.7392 97.6504 92.6175 95.0259 95.1244C95.0259 95.1244 96.0519 98.9302 103.025 98.9302C110.703 98.9302 106.682 95.1244 106.682 95.1244C102.494 94.1189 102.613 91.0184 103.339 88.0995L96.1846 81.9893Z" fill="#E4897B"/>
<path d="M91.8916 97.1008C92.7222 95.8089 91.3262 92.6735 91.3262 92.6735C91.3262 92.6735 103.667 89.566 108.713 94.3355C109.76 95.3201 108.602 96.7725 108.602 96.7725L91.8916 97.1008Z" fill="#407BFF"/>
<path opacity="0.1" d="M91.8916 97.1008C92.7222 95.8089 91.3262 92.6735 91.3262 92.6735C91.3262 92.6735 103.667 89.566 108.713 94.3355C109.76 95.3201 108.602 96.7725 108.602 96.7725L91.8916 97.1008Z" fill="black"/>
<path d="M71.4755 239.577C70.8264 239.577 69.7864 238.494 69.4792 238.089C69.466 238.07 69.459 238.046 69.459 238.023C69.459 237.999 69.466 237.976 69.4792 237.956C69.4905 237.937 69.5068 237.921 69.5265 237.91C69.5461 237.899 69.5684 237.893 69.5909 237.894C69.6677 237.894 71.3778 238.047 71.8455 238.655C71.8963 238.719 71.9326 238.793 71.9519 238.873C71.9712 238.952 71.973 239.035 71.9571 239.116C71.9511 239.22 71.9129 239.319 71.8479 239.4C71.7829 239.482 71.6942 239.541 71.5942 239.57L71.4755 239.577ZM69.8562 238.18C70.3657 238.766 71.1824 239.43 71.5314 239.346C71.5314 239.346 71.671 239.311 71.7128 239.088C71.722 239.041 71.7205 238.993 71.7084 238.947C71.6963 238.901 71.674 238.858 71.643 238.822C71.126 238.431 70.5038 238.202 69.8562 238.166V238.18Z" fill="#407BFF"/>
<path d="M69.9329 238.166C69.8076 238.179 69.6813 238.179 69.556 238.166C69.5339 238.165 69.5129 238.157 69.4955 238.143C69.4781 238.129 69.4651 238.111 69.4583 238.09C69.4485 238.07 69.4434 238.049 69.4434 238.027C69.4434 238.005 69.4485 237.983 69.4583 237.964C69.5072 237.922 70.5332 236.854 71.308 236.854C71.4007 236.852 71.4928 236.869 71.5782 236.905C71.6637 236.941 71.7405 236.995 71.8036 237.063C71.8731 237.121 71.9206 237.201 71.9384 237.29C71.9562 237.379 71.9431 237.472 71.9013 237.552C71.6989 237.943 70.6309 238.166 69.9329 238.166ZM69.8422 237.922C70.5402 237.922 71.5523 237.706 71.7198 237.398C71.7198 237.398 71.7687 237.308 71.657 237.196C71.6164 237.152 71.5666 237.117 71.5111 237.094C71.4557 237.071 71.3959 237.061 71.3359 237.063C70.7637 237.195 70.2437 237.494 69.8422 237.922Z" fill="#407BFF"/>
<path d="M117.537 255.428C117.007 255.425 116.48 255.376 115.959 255.282C115.933 255.277 115.91 255.263 115.893 255.242C115.877 255.222 115.868 255.196 115.868 255.17C115.864 255.146 115.868 255.121 115.878 255.099C115.887 255.077 115.904 255.058 115.924 255.044C116.001 255.002 117.788 253.976 118.646 254.213C118.726 254.231 118.801 254.265 118.867 254.313C118.933 254.361 118.989 254.422 119.03 254.493C119.085 254.57 119.114 254.663 119.114 254.758C119.114 254.853 119.085 254.946 119.03 255.023C118.828 255.338 118.193 255.428 117.537 255.428ZM116.357 255.1C117.306 255.24 118.604 255.233 118.842 254.898C118.877 254.856 118.905 254.779 118.842 254.632C118.788 254.545 118.703 254.483 118.604 254.458C118.06 254.318 116.978 254.779 116.357 255.1Z" fill="#407BFF"/>
<path d="M115.987 255.288C115.964 255.295 115.94 255.295 115.917 255.288C115.897 255.276 115.882 255.258 115.874 255.237C115.865 255.216 115.863 255.192 115.868 255.17C115.915 254.443 116.194 253.75 116.664 253.193C116.759 253.111 116.87 253.051 116.991 253.016C117.111 252.981 117.238 252.972 117.362 252.991C117.697 252.991 117.794 253.193 117.815 253.326C117.906 253.906 116.685 255.016 116.063 255.295L115.987 255.288ZM117.236 253.193C117.082 253.192 116.934 253.247 116.817 253.347C116.423 253.788 116.178 254.343 116.119 254.932C116.747 254.548 117.585 253.682 117.515 253.333C117.515 253.333 117.515 253.214 117.278 253.193H117.236Z" fill="#407BFF"/>
<path d="M110.347 255.163H115.477L115.987 243.285H110.857L110.347 255.163Z" fill="#E4897B"/>
<path d="M64.6631 234.772L68.9488 237.579L78.4137 229.584L74.121 226.77L64.6631 234.772Z" fill="#E4897B"/>
<path d="M69.6535 237.315L65.2003 233.663C65.1216 233.598 65.0229 233.562 64.9211 233.562C64.8193 233.562 64.7206 233.598 64.6419 233.663L60.9704 236.547C60.8817 236.617 60.8101 236.707 60.7608 236.809C60.7116 236.911 60.686 237.023 60.686 237.137C60.686 237.25 60.7116 237.362 60.7608 237.464C60.8101 237.566 60.8817 237.656 60.9704 237.727C62.5479 238.977 63.3785 239.507 65.3399 241.114C66.5474 242.098 69.5279 245.115 71.2101 246.477C72.8922 247.838 74.4348 246.372 73.8764 245.667C71.3706 242.489 70.3864 239.773 70.1002 238.09C70.0508 237.786 69.8919 237.51 69.6535 237.315Z" fill="#263238"/>
<path d="M115.442 254.569H109.858C109.756 254.57 109.658 254.604 109.578 254.668C109.498 254.731 109.442 254.819 109.418 254.918L108.406 259.478C108.381 259.589 108.381 259.704 108.406 259.814C108.432 259.925 108.482 260.028 108.553 260.116C108.625 260.204 108.715 260.275 108.818 260.323C108.921 260.371 109.033 260.395 109.146 260.393C111.163 260.358 114.081 260.24 116.622 260.24C119.588 260.24 122.157 260.4 125.633 260.4C127.727 260.4 128.327 258.27 127.441 258.082C123.434 257.202 120.154 257.111 116.692 254.967C116.32 254.721 115.887 254.583 115.442 254.569Z" fill="#263238"/>
<path d="M84.919 96.6542C80.4727 98.7491 77.939 112.785 77.939 112.785L88.8068 117.122C90.3976 113.236 91.6835 109.231 92.6528 105.146C94.1465 98.6793 89.4699 94.4894 84.919 96.6542Z" fill="#263238"/>
<path d="M90.6842 104.566C87.9969 107.289 86.7684 112.624 86.231 116.095L88.8345 117.135C90.3801 113.36 91.64 109.473 92.6037 105.509C92.3734 104.028 91.801 103.435 90.6842 104.566Z" fill="#203048"/>
<path d="M114.57 96.5563C114.57 96.5563 120.028 102.729 114.877 140.899H87.4526C87.2641 136.709 89.9095 116.144 85.8472 96.298C88.8779 95.7101 91.9441 95.3228 95.0259 95.1388C98.908 94.9082 102.8 94.9082 106.682 95.1388C109.344 95.4068 111.981 95.8807 114.57 96.5563Z" fill="#263238"/>
<path d="M117.076 111.375L112.455 103.407C111.563 107.125 111.199 110.95 111.373 114.769C111.499 117.506 114.004 127.646 116.259 129.126C116.857 123.228 117.13 117.302 117.076 111.375Z" fill="#203048"/>
<path d="M117.718 102.01C118.416 105.404 119.114 108.881 119.861 112.289C120.608 115.697 121.382 119.118 122.283 122.421C122.513 123.238 122.73 124.076 122.981 124.858L123.169 125.459L123.26 125.759V125.724C123.211 125.661 123.155 125.654 123.197 125.724C123.484 126.038 123.851 126.267 124.258 126.388C124.918 126.633 125.597 126.823 126.289 126.953C129.589 127.477 132.931 127.694 136.271 127.603L136.934 131.402C135.998 131.702 135.126 131.918 134.205 132.135C133.283 132.351 132.376 132.533 131.448 132.672C129.527 132.992 127.579 133.123 125.633 133.064C124.551 133.034 123.475 132.894 122.422 132.645C121.083 132.351 119.825 131.767 118.737 130.934C118.026 130.36 117.44 129.647 117.013 128.839C116.901 128.629 116.803 128.392 116.713 128.189L116.587 127.861L116.329 127.163C115.973 126.276 115.68 125.403 115.359 124.53C114.179 121.039 113.195 117.512 112.329 113.993C111.464 110.473 110.717 106.961 110.096 103.351L117.718 102.01Z" fill="#E4897B"/>
<path d="M107.722 100.3C106.278 104.985 112.134 118.958 112.134 118.958L123.797 116.025C123.797 116.025 123.351 108.763 120.691 103.002C116.685 94.315 109.453 94.6782 107.722 100.3Z" fill="#263238"/>
<path d="M136.173 127.603L141.98 127.456L139.188 133.503C139.188 133.503 136.822 133.818 134.882 130.626L132.836 128.182L135.189 127.714C135.512 127.646 135.842 127.609 136.173 127.603Z" fill="#E4897B"/>
<path d="M145.645 128.58L142.322 133.594L139.188 133.503L141.98 127.456L145.645 128.58Z" fill="#E4897B"/>
<path d="M115.987 243.285L115.722 249.409H110.591L110.857 243.285H115.987Z" fill="#CE6F64"/>
<path d="M74.1207 226.77L78.4134 229.584L73.5274 233.704L69.2417 230.897L74.1207 226.77Z" fill="#CE6F64"/>
<path d="M96.5058 77.9948C96.8129 83.0715 96.7361 86.0673 99.2978 88.672C103.151 92.6034 109.426 90.2781 110.64 85.1804C111.736 80.6135 111.052 73.0718 106.082 71.0467C104.986 70.6039 103.795 70.447 102.621 70.5909C101.447 70.7348 100.329 71.1746 99.3719 71.8692C98.4146 72.5637 97.6494 73.4902 97.1481 74.5617C96.6467 75.6331 96.4257 76.8145 96.5058 77.9948Z" fill="#E4897B"/>
<path d="M90.5306 77.102C91.794 81.7318 94.7675 87.0668 98.6135 87.409C103.388 87.828 105.545 82.891 106.173 77.7933C109.035 75.8311 107.534 73.6733 110.403 73.401C114.088 73.0518 112.909 66.3061 108.057 65.2238C108.057 65.2238 109.684 68.2614 106.271 66.7251C103.025 65.1818 99.4183 64.5563 95.8424 64.9165C95.8424 64.9165 100.198 67.0952 95.9401 68.0659C91.6823 69.0365 90.412 71.6622 92.3733 73.2473C92.3733 73.2543 89.7 74.0574 90.5306 77.102Z" fill="#263238"/>
<path d="M103.262 78.8407C103.356 80.1026 103.864 81.2982 104.707 82.2414C105.824 83.4774 106.989 82.7093 107.185 81.2079C107.366 79.8602 106.996 77.5907 105.628 76.9063C104.26 76.222 103.171 77.3184 103.262 78.8407Z" fill="#E4897B"/>
<path d="M105.147 140.899C105.147 140.899 110.144 177.106 106.208 191.617C99.9675 214.591 76.1098 233.983 76.1098 233.983L68.02 228.676C68.02 228.676 88.3388 212.301 90.8237 193.062C93.0573 175.793 87.4523 154.907 87.4523 140.892L105.147 140.899Z" fill="#407BFF"/>
<path opacity="0.1" d="M105.147 140.899C105.147 140.899 110.144 177.106 106.208 191.617C99.9675 214.591 76.1098 233.983 76.1098 233.983L68.02 228.676C68.02 228.676 88.3388 212.301 90.8237 193.062C93.0573 175.793 87.4523 154.907 87.4523 140.892L105.147 140.899Z" fill="black"/>
<path d="M107.213 161.597C105.882 160.072 104.418 158.67 102.836 157.407C103.688 169.16 104.386 186.569 103.611 198.936C104.653 196.565 105.521 194.121 106.208 191.624C108.127 184.536 107.925 172.295 107.213 161.597Z" fill="#407BFF"/>
<path opacity="0.3" d="M107.213 161.597C105.882 160.072 104.418 158.67 102.836 157.407C103.688 169.16 104.386 186.569 103.611 198.936C104.653 196.565 105.521 194.121 106.208 191.624C108.127 184.536 107.925 172.295 107.213 161.597Z" fill="black"/>
<path d="M79.3696 232.175C79.4045 232.175 76.2356 234.27 76.2356 234.27L67.3989 228.474L70.1909 226.162L79.3696 232.175Z" fill="#407BFF"/>
<path opacity="0.3" d="M79.3696 232.175C79.4045 232.175 76.2356 234.27 76.2356 234.27L67.3989 228.474L70.1909 226.162L79.3696 232.175Z" fill="black"/>
<path d="M114.877 140.898C114.877 140.898 122.597 173.649 123.141 189.298C123.756 206.84 117.634 248.221 117.634 248.221H108.944C108.944 248.221 107.876 206.518 107.492 190.541C107.066 173.118 96.8477 140.898 96.8477 140.898H114.877Z" fill="#407BFF"/>
<path opacity="0.1" d="M114.877 140.898C114.877 140.898 122.597 173.649 123.141 189.298C123.756 206.84 117.634 248.221 117.634 248.221H108.944C108.944 248.221 107.876 206.518 107.492 190.541C107.066 173.118 96.8477 140.898 96.8477 140.898H114.877Z" fill="black"/>
<path d="M119.302 244.765C119.344 244.765 118.814 248.368 118.814 248.368H108.246L107.96 245.149L119.302 244.765Z" fill="#407BFF"/>
<path opacity="0.3" d="M119.302 244.765C119.344 244.765 118.814 248.368 118.814 248.368H108.246L107.96 245.149L119.302 244.765Z" fill="black"/>
<path d="M248.488 109.426C249.081 109.984 249.549 110.459 250.038 110.99C250.526 111.521 250.987 112.037 251.434 112.575C252.341 113.644 253.193 114.768 254.016 115.899C255.661 118.168 257.125 120.564 258.393 123.064L258.651 123.573C258.777 123.82 258.882 124.077 258.965 124.342C259.134 124.853 259.237 125.383 259.272 125.92C259.318 126.867 259.187 127.814 258.888 128.713C258.378 130.207 257.621 131.604 256.648 132.847C254.894 135.101 252.825 137.09 250.505 138.755L248.767 136.758C249.584 135.801 250.436 134.774 251.196 133.748C251.971 132.753 252.67 131.703 253.29 130.605C253.869 129.648 254.298 128.607 254.561 127.519C254.651 127.13 254.668 126.727 254.61 126.332C254.585 126.199 254.542 126.07 254.484 125.948C254.458 125.894 254.427 125.843 254.393 125.794L254.17 125.417C252.824 123.221 251.363 121.098 249.793 119.055C249.019 118.029 248.188 117.044 247.35 116.074C246.939 115.585 246.513 115.11 246.087 114.635C245.661 114.16 245.201 113.685 244.831 113.315L248.488 109.426Z" fill="#E4897B"/>
<path d="M249.437 136.171L244.223 135.319L246.952 139.886C246.952 139.886 250.31 139.768 251.266 137.791L249.437 136.171Z" fill="#E4897B"/>
<path d="M240.37 137.428L242.855 141.136L246.952 139.886L244.223 135.319L240.37 137.428Z" fill="#E4897B"/>
<path d="M249.186 255.365C248.831 255.395 248.478 255.299 248.188 255.093C248.1 255.01 248.036 254.906 248 254.791C247.965 254.676 247.96 254.554 247.985 254.436C247.99 254.361 248.016 254.289 248.059 254.228C248.102 254.166 248.161 254.117 248.23 254.087C248.837 253.815 250.428 254.834 250.61 254.953C250.631 254.966 250.646 254.985 250.655 255.008C250.664 255.03 250.665 255.055 250.659 255.079C250.656 255.103 250.646 255.125 250.629 255.143C250.613 255.16 250.592 255.172 250.568 255.176C250.116 255.291 249.652 255.355 249.186 255.365ZM248.488 254.283C248.437 254.275 248.385 254.275 248.334 254.283C248.304 254.297 248.278 254.32 248.259 254.348C248.241 254.376 248.23 254.409 248.23 254.443C248.211 254.521 248.213 254.603 248.235 254.68C248.257 254.757 248.298 254.827 248.355 254.883C248.62 255.121 249.305 255.155 250.219 254.974C249.695 254.628 249.106 254.392 248.488 254.283Z" fill="#407BFF"/>
<path d="M250.582 255.169H250.519C250.023 254.883 249.067 253.773 249.186 253.165C249.208 253.069 249.261 252.984 249.337 252.921C249.413 252.858 249.506 252.821 249.605 252.816C249.699 252.802 249.795 252.81 249.886 252.839C249.976 252.869 250.059 252.918 250.128 252.984C250.701 253.486 250.708 254.995 250.708 255.078C250.706 255.1 250.7 255.12 250.689 255.139C250.678 255.157 250.663 255.172 250.645 255.183L250.582 255.169ZM249.688 253.074H249.633C249.479 253.074 249.444 253.158 249.43 253.221C249.36 253.577 249.954 254.429 250.449 254.827C250.461 254.241 250.293 253.666 249.968 253.179C249.926 253.14 249.876 253.111 249.822 253.092C249.768 253.074 249.71 253.068 249.654 253.074H249.688Z" fill="#407BFF"/>
<path d="M225.398 255.365C224.952 255.408 224.506 255.294 224.135 255.044C224.051 254.97 223.986 254.876 223.946 254.772C223.906 254.667 223.892 254.555 223.904 254.444C223.909 254.376 223.93 254.31 223.967 254.253C224.004 254.195 224.054 254.148 224.114 254.115C224.763 253.752 226.843 254.814 227.08 254.946C227.102 254.96 227.119 254.98 227.13 255.004C227.142 255.027 227.146 255.053 227.143 255.079C227.139 255.103 227.127 255.126 227.11 255.144C227.092 255.161 227.07 255.173 227.045 255.177C226.503 255.292 225.952 255.355 225.398 255.365ZM224.47 254.283C224.39 254.278 224.31 254.295 224.239 254.332C224.214 254.344 224.193 254.362 224.178 254.386C224.163 254.409 224.156 254.437 224.156 254.464C224.145 254.537 224.152 254.611 224.176 254.681C224.201 254.75 224.241 254.812 224.295 254.862C224.616 255.149 225.475 255.198 226.633 255.002C225.958 254.642 225.226 254.399 224.47 254.283Z" fill="#407BFF"/>
<path d="M227.024 255.169H226.969C226.347 254.89 225.112 253.773 225.21 253.165C225.21 253.025 225.335 252.851 225.677 252.816C225.802 252.802 225.929 252.815 226.049 252.852C226.169 252.889 226.28 252.951 226.375 253.032C227.031 253.577 227.157 254.988 227.157 255.05C227.16 255.072 227.157 255.093 227.148 255.113C227.139 255.133 227.126 255.15 227.108 255.162C227.082 255.174 227.052 255.176 227.024 255.169ZM225.775 253.074H225.698C225.475 253.074 225.461 253.186 225.454 253.214C225.398 253.57 226.236 254.457 226.85 254.841C226.789 254.244 226.545 253.681 226.152 253.228C226.046 253.138 225.914 253.084 225.775 253.074Z" fill="#407BFF"/>
<path d="M235.275 93.3721C235.072 96.5284 234.528 102.939 236.95 104.713C236.95 104.713 236.51 107.946 230.793 108.7C224.511 109.517 227.38 105.97 227.38 105.97C230.71 104.699 230.284 102.164 229.377 99.8454L235.275 93.3721Z" fill="#E4897B"/>
<path d="M222.271 87.7923C222.236 87.7924 222.202 87.7849 222.171 87.7705C222.14 87.756 222.112 87.7349 222.089 87.7085C221.89 87.4717 221.637 87.285 221.352 87.1637C221.068 87.0424 220.758 86.9898 220.449 87.0102C220.416 87.0162 220.383 87.0154 220.351 87.008C220.318 87.0006 220.288 86.9866 220.261 86.967C220.234 86.9474 220.212 86.9226 220.195 86.894C220.178 86.8654 220.167 86.8337 220.163 86.8007C220.155 86.7351 220.173 86.6689 220.214 86.6166C220.254 86.5643 220.314 86.5301 220.379 86.5214C220.773 86.4881 221.17 86.5507 221.534 86.7039C221.899 86.8571 222.221 87.0964 222.473 87.4013C222.504 87.4377 222.523 87.4819 222.529 87.5288C222.535 87.5758 222.528 87.6235 222.509 87.6665C222.489 87.7096 222.457 87.7462 222.418 87.7722C222.378 87.7981 222.332 87.8124 222.285 87.8133L222.271 87.7923Z" fill="#263238"/>
<path d="M221.182 90.8857C220.935 91.8873 220.552 92.8505 220.044 93.7488C220.277 93.8742 220.535 93.9468 220.799 93.9613C221.064 93.9758 221.328 93.9318 221.573 93.8326L221.182 90.8857Z" fill="#DE5753"/>
<path d="M221.461 90.1171C221.517 90.5361 221.343 90.8992 221.07 90.9411C220.798 90.983 220.526 90.6618 220.477 90.2428C220.428 89.8238 220.596 89.4607 220.868 89.4258C221.14 89.3909 221.413 89.6702 221.461 90.1171Z" fill="#263238"/>
<path d="M220.994 89.4331L219.954 89.2725C219.954 89.2725 220.568 89.9917 220.994 89.4331Z" fill="#263238"/>
<path d="M232.776 255.058H227.541L227.192 242.942H232.427L232.776 255.058Z" fill="#E4897B"/>
<path d="M256.543 255.058H251.308L249.625 242.942H254.86L256.543 255.058Z" fill="#E4897B"/>
<path d="M250.987 254.471H256.864C256.964 254.47 257.061 254.505 257.137 254.571C257.213 254.637 257.262 254.728 257.276 254.827L257.974 259.485C257.986 259.602 257.974 259.721 257.938 259.833C257.902 259.946 257.842 260.049 257.763 260.137C257.684 260.224 257.587 260.294 257.479 260.342C257.371 260.39 257.254 260.414 257.136 260.413C255.091 260.378 254.1 260.26 251.517 260.26C249.926 260.26 247.601 260.42 245.41 260.42C243.218 260.42 243.099 258.249 244.014 258.053C248.111 257.173 248.76 255.958 250.135 254.792C250.375 254.593 250.675 254.48 250.987 254.471Z" fill="#263238"/>
<path d="M227.366 254.471H233.236C233.337 254.47 233.435 254.505 233.512 254.57C233.589 254.636 233.64 254.727 233.655 254.827L234.353 259.485C234.366 259.602 234.354 259.721 234.317 259.833C234.281 259.946 234.221 260.049 234.142 260.137C234.063 260.224 233.966 260.294 233.858 260.342C233.75 260.39 233.633 260.414 233.515 260.413C231.47 260.378 230.479 260.26 227.897 260.26C226.305 260.26 223.011 260.42 220.819 260.42C218.627 260.42 218.508 258.249 219.423 258.053C223.52 257.173 225.132 255.958 226.514 254.792C226.754 254.593 227.054 254.48 227.366 254.471Z" fill="#263238"/>
<path d="M227.192 242.942L227.373 249.192H232.608L232.427 242.942H227.192Z" fill="#CE6F64"/>
<path d="M254.86 242.942H249.625L250.498 249.192H255.726L254.86 242.942Z" fill="#CE6F64"/>
<path d="M235.345 86.8356C235.701 92.0171 235.959 94.2028 233.711 97.1846C230.326 101.661 223.89 100.969 221.992 95.9974C220.282 91.5213 219.989 83.805 224.749 81.0955C225.796 80.4951 226.979 80.1723 228.186 80.1577C229.393 80.1432 230.584 80.4374 231.645 81.0124C232.707 81.5874 233.604 82.4241 234.251 83.4433C234.898 84.4624 235.275 85.6301 235.345 86.8356Z" fill="#E4897B"/>
<path d="M238.36 91.6469C241.263 93.2669 243.42 89.2726 243.42 89.2726C243.42 89.2726 238.213 89.8382 238.681 86.7378C239.295 82.6247 236.35 77.6248 228.965 78.2673C228.553 78.3022 228.162 78.3511 227.778 78.4139C227.005 78.0473 226.131 77.9527 225.297 78.1453C224.464 78.338 223.719 78.8066 223.185 79.4754C221.091 79.6499 218.264 82.1499 220.184 85.4529C220.319 85.0734 220.527 84.7244 220.798 84.4264C220.959 86.3607 222.648 89.4332 224.756 89.6357C225.21 92.2823 223.451 95.3479 224.058 98.1132C224.958 102.101 231.68 103.001 231.68 103.001C231.448 102.503 231.362 101.95 231.431 101.405C231.5 100.86 231.722 100.346 232.071 99.9218C236.636 102.017 239.644 99.9707 239.644 99.9707C236.531 98.8115 237.473 96.7445 237.473 96.7445C238.548 97.222 239.766 97.2639 240.871 96.8615C241.977 96.4591 242.883 95.6437 243.399 94.5867C242.365 94.6359 241.339 94.3844 240.445 93.8627C239.551 93.341 238.826 92.5714 238.36 91.6469Z" fill="#263238"/>
<path d="M226.578 90.4314C226.59 90.9287 226.504 91.4235 226.324 91.8873C226.144 92.3511 225.875 92.7747 225.531 93.1339C224.609 94.0905 223.478 93.4201 223.171 92.1981C222.899 91.0948 223.053 89.2722 224.253 88.7694C224.517 88.6655 224.803 88.6294 225.085 88.6642C225.367 88.6991 225.635 88.8039 225.866 88.969C226.097 89.1342 226.283 89.3545 226.408 89.6099C226.532 89.8653 226.59 90.1477 226.578 90.4314Z" fill="#E4897B"/>
<path d="M230.926 138.706C230.926 138.706 232.252 173.174 235.407 193.411C237.948 209.765 249.235 247.977 249.235 247.977H256.368C256.368 247.977 250.484 211.071 249.193 194.905C245.926 153.992 254.407 145.207 246.401 136.688L230.926 138.706Z" fill="#263238"/>
<path d="M236.887 149.606C236.887 149.606 233.662 149.047 231.778 155.192C232.476 166.833 233.669 182.28 235.407 193.411C235.791 195.89 236.378 198.879 237.097 202.154C235.735 182.489 236.887 149.606 236.887 149.606Z" fill="#161F33"/>
<path d="M225.363 139.432C225.363 139.432 219.486 177.566 219.828 193.523C220.184 210.122 226.263 247.991 226.263 247.991H233.334C233.334 247.991 232.217 211.106 232.839 194.808C233.537 177.036 240.789 137.428 240.789 137.428L225.363 139.432Z" fill="#263238"/>
<path d="M257.401 248.312H247.915L247.175 245.128L257.331 245.198L257.401 248.312Z" fill="#407BFF"/>
<path opacity="0.2" d="M257.401 248.312H247.915L247.175 245.128L257.331 245.198L257.401 248.312Z" fill="black"/>
<path d="M246.045 104.719C248.774 104.984 252.92 112.743 252.92 112.743L246.031 118.029C246.031 118.029 240.328 113.022 241.005 110.208C241.71 107.282 243.427 104.475 246.045 104.719Z" fill="#407BFF"/>
<path opacity="0.1" d="M246.045 104.719C248.774 104.984 252.92 112.743 252.92 112.743L246.031 118.029C246.031 118.029 240.328 113.022 241.005 110.208C241.71 107.282 243.427 104.475 246.045 104.719Z" fill="black"/>
<path d="M243.986 108.057C243.29 107.87 242.57 107.789 241.85 107.82C241.484 108.583 241.2 109.384 241.005 110.208C240.307 113.001 246.031 118.029 246.031 118.029L246.54 117.638L243.986 108.057Z" fill="#407BFF"/>
<path opacity="0.3" d="M243.986 108.057C243.29 107.87 242.57 107.789 241.85 107.82C241.484 108.583 241.2 109.384 241.005 110.208C240.307 113.001 246.031 118.029 246.031 118.029L246.54 117.638L243.986 108.057Z" fill="black"/>
<path d="M223.025 115.508C221.035 120.543 218.941 125.661 217.273 130.71C217.162 131.031 217.071 131.339 216.973 131.653L216.736 132.428C216.671 132.656 216.671 132.898 216.736 133.126C217.13 133.999 217.755 134.748 218.544 135.291C220.631 136.789 222.904 138.007 225.307 138.915L224.679 141.485C221.723 141.095 218.864 140.162 216.247 138.734C214.636 137.873 213.325 136.543 212.485 134.921C212.003 133.884 211.835 132.728 212.003 131.597C212.019 131.459 212.043 131.321 212.073 131.185L212.143 130.892L212.262 130.361C212.345 130.005 212.429 129.663 212.52 129.314C213.218 126.52 214.111 123.867 215.054 121.234C215.996 118.602 216.98 116.004 218.09 113.413L223.025 115.508Z" fill="#E4897B"/>
<path d="M218.788 108.441C218.788 108.441 216.428 109.635 225.363 139.432L246.428 136.68C244.949 128.147 244.251 122.861 246.045 104.719C243.024 104.503 239.991 104.503 236.971 104.719C233.755 104.906 230.556 105.326 227.401 105.976C223.36 106.877 218.788 108.441 218.788 108.441Z" fill="#407BFF"/>
<path opacity="0.1" d="M218.788 108.441C218.788 108.441 216.428 109.635 225.363 139.432L246.428 136.68C244.949 128.147 244.251 122.861 246.045 104.719C243.024 104.503 239.991 104.503 236.971 104.719C233.755 104.906 230.556 105.326 227.401 105.976C223.36 106.877 218.788 108.441 218.788 108.441Z" fill="black"/>
<path d="M246.582 135.403L247.79 137.156C247.881 137.295 247.727 137.463 247.49 137.498L225.398 140.389C225.209 140.389 225.035 140.34 225.007 140.221L224.574 138.357C224.539 138.231 224.693 138.098 224.902 138.071L246.233 135.277C246.297 135.267 246.363 135.273 246.424 135.295C246.485 135.317 246.539 135.354 246.582 135.403Z" fill="#407BFF"/>
<path opacity="0.2" d="M246.582 135.403L247.79 137.156C247.881 137.295 247.727 137.463 247.49 137.498L225.398 140.389C225.209 140.389 225.035 140.34 225.007 140.221L224.574 138.357C224.539 138.231 224.693 138.098 224.902 138.071L246.233 135.277C246.297 135.267 246.363 135.273 246.424 135.295C246.485 135.317 246.539 135.354 246.582 135.403Z" fill="black"/>
<path d="M244.028 138.161L244.6 138.085C244.712 138.085 244.789 138.001 244.775 137.931L244.188 135.515C244.166 135.474 244.13 135.441 244.087 135.423C244.044 135.406 243.996 135.403 243.951 135.417L243.379 135.487C243.26 135.487 243.183 135.571 243.204 135.647L243.79 138.057C243.804 138.133 243.916 138.175 244.028 138.161Z" fill="#263238"/>
<path d="M230.179 139.948L230.752 139.871C230.863 139.871 230.947 139.788 230.926 139.718L230.34 137.302C230.317 137.261 230.282 137.229 230.239 137.21C230.196 137.191 230.148 137.186 230.103 137.197L229.53 137.274C229.419 137.274 229.335 137.358 229.356 137.427L229.942 139.844C229.956 139.948 230.068 139.99 230.179 139.948Z" fill="#263238"/>
<path d="M219.772 118.553C220.351 121.248 221.168 124.663 222.362 128.986L222.62 118.029L219.772 118.553Z" fill="#407BFF"/>
<path opacity="0.3" d="M219.772 118.553C220.351 121.248 221.168 124.663 222.362 128.986L222.62 118.029L219.772 118.553Z" fill="black"/>
<path d="M218.788 108.441C216.17 109.495 213.902 118.455 213.902 118.455L222.906 122.84C222.906 122.84 227.255 111.884 225.307 109.747C223.36 107.61 221.803 107.233 218.788 108.441Z" fill="#407BFF"/>
<path opacity="0.1" d="M218.788 108.441C216.17 109.495 213.902 118.455 213.902 118.455L222.906 122.84C222.906 122.84 227.255 111.884 225.307 109.747C223.36 107.61 221.803 107.233 218.788 108.441Z" fill="black"/>
<path d="M234.542 248.312H225.056L224.316 245.128L234.877 245.198L234.542 248.312Z" fill="#407BFF"/>
<path opacity="0.2" d="M234.542 248.312H225.056L224.316 245.128L234.877 245.198L234.542 248.312Z" fill="black"/>
<path d="M225.454 138.049L224.693 137.735C224.506 137.659 224.302 137.633 224.102 137.662C223.902 137.69 223.713 137.77 223.555 137.895C223.396 138.02 223.273 138.184 223.198 138.372C223.124 138.56 223.1 138.764 223.13 138.964L223.681 142.602C223.707 142.784 223.774 142.958 223.876 143.111C223.978 143.264 224.112 143.393 224.27 143.488C224.428 143.583 224.604 143.642 224.787 143.66C224.97 143.678 225.155 143.655 225.328 143.594C225.605 143.493 225.864 143.349 226.096 143.168C226.349 142.958 226.548 142.692 226.679 142.392C226.81 142.091 226.869 141.763 226.85 141.436L226.773 139.927C226.76 139.52 226.628 139.125 226.394 138.791C226.159 138.458 225.833 138.2 225.454 138.049Z" fill="#E4897B"/>
</svg>
